<?xml version="1.0" standalone="no"?>
<!DOCTYPE svg PUBLIC "-//W3C//DTD SVG 20010904//EN"
 "http://www.w3.org/TR/2001/REC-SVG-20010904/DTD/svg10.dtd">
<svg version="1.0" xmlns="http://www.w3.org/2000/svg"
 width="300.000000pt" height="300.000000pt" viewBox="0 0 300.000000 300.000000"
 preserveAspectRatio="xMidYMid meet">
<metadata>
Created by potrace 1.16, written by Peter Selinger 2001-2019
</metadata>
<g transform="translate(0.000000,300.000000) scale(0.100000,-0.100000)"
fill="#000000" stroke="none">
<path d="M567 2413 c-3 -71 -3 -132 0 -137 3 -5 81 -45 172 -89 91 -43 244
-117 340 -163 95 -46 182 -84 192 -84 11 0 19 -7 19 -15 0 -8 70 -154 155
-325 133 -267 159 -312 186 -326 22 -11 28 -18 20 -24 -8 -4 -10 -21 -7 -46 7
-46 2 -36 -14 24 -6 23 -15 42 -20 42 -27 0 -76 81 -213 354 l-152 301 -150
69 c-408 188 -491 224 -499 219 -5 -4 -6 -102 -2 -236 4 -126 7 -347 6 -491 0
-259 0 -261 22 -279 20 -15 17 -15 -19 2 -23 12 -47 21 -53 21 -7 0 -9 -112
-8 -357 l3 -358 72 -3 c87 -3 86 -6 103 138 16 133 25 115 11 -22 -5 -57 -6
-107 -2 -111 5 -5 44 -7 88 -5 l78 3 -3 -33 -4 -33 108 3 109 3 3 404 c2 356
0 403 -13 397 -8 -3 -15 -1 -15 4 0 6 7 10 15 10 13 0 15 25 15 163 0 151 1
160 15 133 19 -36 331 -483 357 -511 10 -11 72 -94 137 -184 65 -91 124 -167
131 -169 10 -4 11 5 6 39 -8 50 -10 52 71 -61 33 -47 76 -102 95 -122 32 -35
39 -38 89 -38 54 -1 54 -1 27 -16 -16 -8 -28 -19 -28 -24 0 -6 81 -10 210 -10
l210 0 0 95 c0 107 -7 118 -59 90 l-31 -16 0 54 0 54 -120 125 c-65 69 -117
128 -114 131 9 8 -156 98 -168 91 -7 -4 -8 -3 -4 4 8 14 -30 36 -46 26 -6 -4
-8 -3 -5 3 8 13 -50 46 -65 37 -7 -4 -8 -3 -4 4 3 6 -2 16 -13 21 -26 14 -28
14 -28 -5 0 -18 73 -58 89 -48 6 4 8 3 5 -3 -4 -7 40 -37 107 -74 l114 -62
-48 -116 c-27 -64 -67 -156 -89 -205 l-41 -89 -33 44 c-128 170 -126 164 -173
372 -24 105 -46 202 -49 215 -5 22 -4 22 48 -8 61 -34 66 -36 63 -15 -1 8 -38
36 -81 62 l-79 48 -152 305 c-84 168 -153 308 -153 313 -1 4 39 7 87 7 l88 0
210 -298 209 -299 9 312 8 312 76 7 c139 11 200 8 206 -11 2 -10 50 -219 105
-465 l101 -446 0 -158 0 -159 -138 138 c-75 75 -142 137 -147 137 -5 0 55 -65
135 -145 80 -80 148 -145 152 -145 5 0 8 64 9 143 1 135 3 142 23 55 4 -16 11
-28 16 -28 6 0 10 122 10 333 l0 332 -95 133 c-51 73 -105 146 -118 161 -13
16 -29 55 -37 90 -9 45 -17 61 -29 61 -10 0 -82 47 -161 105 -79 58 -149 104
-155 102 -6 -2 -11 -49 -13 -116 -3 -106 -1 -113 18 -118 20 -5 20 -12 20
-301 0 -168 -4 -292 -9 -286 -4 5 -97 136 -206 292 -130 187 -203 282 -214
282 -10 0 -22 10 -28 23 -6 12 -51 78 -100 147 -49 69 -133 188 -188 265 -54
77 -103 143 -109 147 -6 4 -113 8 -237 8 l-226 0 -6 -127z m460 109 c6 -4 99
-131 206 -282 l195 -275 -41 -7 c-107 -17 -107 -17 -466 155 l-340 162 -1 128
0 127 218 0 c119 0 222 -4 229 -8z m-72 -480 l280 -129 69 -134 c38 -74 102
-203 143 -288 69 -144 71 -152 44 -135 -16 11 -220 145 -455 299 l-425 280 -1
132 0 132 33 -14 c17 -8 158 -72 312 -143z m1054 43 c142 -104 143 -102 -36
-104 l-103 -1 0 101 c0 55 4 99 8 97 4 -1 63 -43 131 -93z m-1140 -335 l231
-152 0 -160 c0 -151 -1 -160 -17 -147 -10 8 -120 99 -245 202 l-228 188 0 116
c0 94 3 114 14 110 7 -3 118 -74 245 -157z m1485 -82 l96 -136 -2 -304 -3
-303 -88 390 c-49 215 -95 417 -102 449 -8 32 -10 55 -6 50 5 -5 52 -70 105
-146z m-1469 -232 c94 -76 174 -145 179 -153 13 -24 2 -77 -89 -421 -47 -177
-85 -325 -85 -327 0 -3 -34 -5 -75 -5 l-75 0 0 30 c0 29 33 410 45 516 6 47 4
51 -20 62 -15 7 -31 9 -37 6 -6 -4 -8 -2 -4 4 4 6 -17 24 -49 44 l-55 33 0
214 0 213 48 -38 c26 -21 124 -101 217 -178z m532 -48 l162 -108 -18 -42 c-10
-24 -31 -72 -47 -106 l-29 -64 -170 243 c-93 133 -172 247 -174 251 -4 11 61
-30 276 -174z m249 -344 c62 -235 84 -324 79 -324 -1 0 -58 76 -125 170 l-121
170 53 99 c29 55 54 98 56 97 1 -2 28 -97 58 -212z m-566 -194 l0 -380 -101 0
c-77 0 -100 3 -97 13 3 6 47 177 98 380 52 202 95 367 97 367 2 0 3 -171 3
-380z m-499 345 c48 -27 64 -31 53 -14 -4 8 0 8 15 0 24 -13 28 -23 6 -15 -8
4 -15 3 -15 0 0 -11 81 -47 92 -40 7 5 8 3 3 -6 -6 -9 -4 -12 6 -8 11 4 5 -54
-28 -286 -23 -160 -42 -292 -42 -293 -1 -2 -32 -3 -71 -3 l-70 0 0 345 c0 190
2 345 4 345 2 0 24 -11 47 -25z m1719 -506 l0 -56 -115 -52 c-99 -44 -124 -51
-179 -51 -57 0 -65 3 -80 25 -16 24 -14 30 71 222 l88 196 107 -114 108 -114
0 -56z m90 -124 l0 -85 -192 0 c-105 0 -189 2 -187 4 9 9 354 165 367 165 9 1
12 -22 12 -84z"/>
<path d="M1930 2357 l0 -174 143 -100 c78 -56 156 -103 172 -106 l30 -4 -27
-2 c-16 0 -28 -6 -28 -11 0 -6 30 -53 68 -106 37 -53 84 -120 105 -151 21 -30
44 -52 50 -50 13 4 14 120 6 602 l-4 270 -257 3 -258 2 0 -173z m508 -93 l2
-252 -42 -6 c-24 -3 -73 -6 -111 -7 l-67 -2 -140 97 -140 97 0 165 0 164 248
-2 247 -3 3 -251z m2 -446 c0 -83 -3 -148 -7 -145 -4 4 -50 69 -104 145 l-97
137 41 6 c23 3 70 7 105 7 l62 2 0 -152z"/>
</g>
</svg>
